<svg width="20" height="20" viewBox="0 0 20 20" fill="none" xmlns="http://www.w3.org/2000/svg">
<mask id="path-1-inside-1_412_180" fill="white">
<path d="M17.0438 0.133716C16.9666 0.134856 16.8904 0.151184 16.8196 0.181768C16.7487 0.212351 16.6846 0.25659 16.6309 0.311959C16.5771 0.367328 16.5348 0.432741 16.5064 0.504463C16.4779 0.576186 16.4638 0.652812 16.465 0.729966V2.49497H14.7C14.6804 2.49399 14.6608 2.49399 14.6413 2.49497C14.5641 2.49882 14.4885 2.51784 14.4187 2.55093C14.3489 2.58402 14.2863 2.63053 14.2344 2.68781C14.1298 2.8035 14.0753 2.95603 14.0831 3.11184C14.0909 3.26766 14.1603 3.41399 14.276 3.51866C14.3917 3.62333 14.5442 3.67776 14.7 3.66997H16.465V5.43497C16.465 5.51212 16.4802 5.58851 16.5097 5.65979C16.5392 5.73107 16.5825 5.79584 16.6371 5.85039C16.6916 5.90495 16.7564 5.94822 16.8277 5.97774C16.899 6.00727 16.9754 6.02247 17.0525 6.02247C17.1297 6.02247 17.206 6.00727 17.2773 5.97774C17.3486 5.94822 17.4134 5.90495 17.4679 5.85039C17.5225 5.79584 17.5658 5.73107 17.5953 5.65979C17.6248 5.58851 17.64 5.51212 17.64 5.43497V3.66997H19.4038C19.5596 3.66997 19.709 3.60807 19.8192 3.49789C19.9294 3.38771 19.9913 3.23828 19.9913 3.08247C19.9913 2.92665 19.9294 2.77722 19.8192 2.66704C19.709 2.55686 19.5596 2.49497 19.4038 2.49497H17.6388V0.729966C17.6399 0.651446 17.6253 0.573487 17.5959 0.500697C17.5664 0.427907 17.5226 0.361764 17.4672 0.306178C17.4117 0.250591 17.3457 0.20669 17.2729 0.177068C17.2002 0.147445 17.1223 0.132704 17.0438 0.133716ZM8.23125 2.50247C7.14048 2.50511 6.09516 2.93967 5.32398 3.71108C4.55281 4.48249 4.11856 5.52794 4.11625 6.61872C4.11856 7.7097 4.55298 8.75534 5.32443 9.52679C6.09587 10.2982 7.14151 10.7327 8.2325 10.735C9.32349 10.7327 10.3691 10.2982 11.1406 9.52679C11.912 8.75534 12.3464 7.7097 12.3488 6.61872C12.3464 5.52773 11.912 4.48209 11.1406 3.71064C10.3691 2.93919 9.32224 2.50478 8.23125 2.50247ZM8.23125 3.67872C8.61781 3.67723 9.00085 3.75225 9.35829 3.89946C9.71572 4.04666 10.0405 4.26315 10.3139 4.53643C10.5873 4.80972 10.8039 5.1344 10.9513 5.49177C11.0986 5.84915 11.1738 6.23215 11.1725 6.61872C11.1737 7.00507 11.0984 7.38783 10.951 7.74498C10.8037 8.10213 10.5871 8.42661 10.3139 8.69975C10.0406 8.97288 9.71607 9.18928 9.35886 9.33648C9.00165 9.48368 8.61885 9.55879 8.2325 9.55747C7.84615 9.55879 7.46335 9.48368 7.10614 9.33648C6.74893 9.18928 6.42436 8.97288 6.15111 8.69975C5.87785 8.42661 5.66132 8.10213 5.51396 7.74498C5.36661 7.38783 5.29134 7.00507 5.2925 6.61872C5.29118 6.23226 5.36632 5.84936 5.5136 5.49206C5.66088 5.13477 5.87739 4.81014 6.15066 4.53688C6.42393 4.26361 6.74856 4.0471 7.10585 3.89982C7.46314 3.75254 7.84479 3.67739 8.23125 3.67872ZM8.23125 11.9087C3.73125 11.9087 0 15.0087 0 18.965H1.17625C1.17625 15.755 4.26375 13.0862 8.2325 13.0862C12.2 13.0862 15.2875 15.755 15.2875 18.965H16.4625C16.4625 15.0087 12.7325 11.9087 8.23125 11.9087Z"/>
</mask>
<path d="M17.0438 0.133716C16.9666 0.134856 16.8904 0.151184 16.8196 0.181768C16.7487 0.212351 16.6846 0.25659 16.6309 0.311959C16.5771 0.367328 16.5348 0.432741 16.5064 0.504463C16.4779 0.576186 16.4638 0.652812 16.465 0.729966V2.49497H14.7C14.6804 2.49399 14.6608 2.49399 14.6413 2.49497C14.5641 2.49882 14.4885 2.51784 14.4187 2.55093C14.3489 2.58402 14.2863 2.63053 14.2344 2.68781C14.1298 2.8035 14.0753 2.95603 14.0831 3.11184C14.0909 3.26766 14.1603 3.41399 14.276 3.51866C14.3917 3.62333 14.5442 3.67776 14.7 3.66997H16.465V5.43497C16.465 5.51212 16.4802 5.58851 16.5097 5.65979C16.5392 5.73107 16.5825 5.79584 16.6371 5.85039C16.6916 5.90495 16.7564 5.94822 16.8277 5.97774C16.899 6.00727 16.9754 6.02247 17.0525 6.02247C17.1297 6.02247 17.206 6.00727 17.2773 5.97774C17.3486 5.94822 17.4134 5.90495 17.4679 5.85039C17.5225 5.79584 17.5658 5.73107 17.5953 5.65979C17.6248 5.58851 17.64 5.51212 17.64 5.43497V3.66997H19.4038C19.5596 3.66997 19.709 3.60807 19.8192 3.49789C19.9294 3.38771 19.9913 3.23828 19.9913 3.08247C19.9913 2.92665 19.9294 2.77722 19.8192 2.66704C19.709 2.55686 19.5596 2.49497 19.4038 2.49497H17.6388V0.729966C17.6399 0.651446 17.6253 0.573487 17.5959 0.500697C17.5664 0.427907 17.5226 0.361764 17.4672 0.306178C17.4117 0.250591 17.3457 0.20669 17.2729 0.177068C17.2002 0.147445 17.1223 0.132704 17.0438 0.133716ZM8.23125 2.50247C7.14048 2.50511 6.09516 2.93967 5.32398 3.71108C4.55281 4.48249 4.11856 5.52794 4.11625 6.61872C4.11856 7.7097 4.55298 8.75534 5.32443 9.52679C6.09587 10.2982 7.14151 10.7327 8.2325 10.735C9.32349 10.7327 10.3691 10.2982 11.1406 9.52679C11.912 8.75534 12.3464 7.7097 12.3488 6.61872C12.3464 5.52773 11.912 4.48209 11.1406 3.71064C10.3691 2.93919 9.32224 2.50478 8.23125 2.50247ZM8.23125 3.67872C8.61781 3.67723 9.00085 3.75225 9.35829 3.89946C9.71572 4.04666 10.0405 4.26315 10.3139 4.53643C10.5873 4.80972 10.8039 5.1344 10.9513 5.49177C11.0986 5.84915 11.1738 6.23215 11.1725 6.61872C11.1737 7.00507 11.0984 7.38783 10.951 7.74498C10.8037 8.10213 10.5871 8.42661 10.3139 8.69975C10.0406 8.97288 9.71607 9.18928 9.35886 9.33648C9.00165 9.48368 8.61885 9.55879 8.2325 9.55747C7.84615 9.55879 7.46335 9.48368 7.10614 9.33648C6.74893 9.18928 6.42436 8.97288 6.15111 8.69975C5.87785 8.42661 5.66132 8.10213 5.51396 7.74498C5.36661 7.38783 5.29134 7.00507 5.2925 6.61872C5.29118 6.23226 5.36632 5.84936 5.5136 5.49206C5.66088 5.13477 5.87739 4.81014 6.15066 4.53688C6.42393 4.26361 6.74856 4.0471 7.10585 3.89982C7.46314 3.75254 7.84479 3.67739 8.23125 3.67872ZM8.23125 11.9087C3.73125 11.9087 0 15.0087 0 18.965H1.17625C1.17625 15.755 4.26375 13.0862 8.2325 13.0862C12.2 13.0862 15.2875 15.755 15.2875 18.965H16.4625C16.4625 15.0087 12.7325 11.9087 8.23125 11.9087Z" fill="#1C6D53"/>
<path d="M17.0438 0.133716L16.9794 -4.86588L16.9698 -4.86574L17.0438 0.133716ZM16.465 0.729966H21.465V0.692456L21.4644 0.654951L16.465 0.729966ZM16.465 2.49497V7.49497H21.465V2.49497H16.465ZM14.7 2.49497L14.45 7.48871L14.5749 7.49497H14.7V2.49497ZM14.6413 2.49497L14.8909 7.48873L14.8913 7.48871L14.6413 2.49497ZM14.2344 2.68781L10.5268 -0.666755L14.2344 2.68781ZM14.7 3.66997V-1.33003H14.5751L14.4503 -1.3238L14.7 3.66997ZM16.465 3.66997H21.465V-1.33003H16.465V3.66997ZM16.465 5.43497L21.465 5.43497V5.43497H16.465ZM17.0525 6.02247V11.0225V6.02247ZM17.64 5.43497L12.64 5.43497L12.64 5.43497L17.64 5.43497ZM17.64 3.66997V-1.33003H12.64V3.66997H17.64ZM19.4038 3.66997V-1.33003V3.66997ZM19.9913 3.08247L24.9913 3.08247L19.9913 3.08247ZM19.4038 2.49497L19.4038 7.49497L19.4038 2.49497ZM17.6388 2.49497H12.6388V7.49497H17.6388V2.49497ZM17.6388 0.729966L12.6393 0.655083L12.6388 0.692522V0.729966H17.6388ZM8.23125 2.50247L8.24185 -2.49752L8.23049 -2.49755L8.21914 -2.49752L8.23125 2.50247ZM4.11625 6.61872L-0.883738 6.60812L-0.883761 6.61872L-0.883738 6.62931L4.11625 6.61872ZM8.2325 10.735L8.22191 15.735L8.2325 15.735L8.2431 15.735L8.2325 10.735ZM12.3488 6.61872L17.3487 6.62931L17.3488 6.61872L17.3487 6.60812L12.3488 6.61872ZM8.23125 3.67872L8.21416 8.67869L8.23232 8.67875L8.25048 8.67868L8.23125 3.67872ZM11.1725 6.61872L6.17253 6.60161L6.17248 6.61765L6.17252 6.63368L11.1725 6.61872ZM8.2325 9.55747L8.24959 4.55749L8.2325 4.55744L8.21541 4.55749L8.2325 9.55747ZM5.2925 6.61872L10.2925 6.63368L10.2925 6.61765L10.2925 6.60162L5.2925 6.61872ZM0 18.965H-5V23.965H0V18.965ZM1.17625 18.965V23.965H6.17625V18.965H1.17625ZM15.2875 18.965H10.2875V23.965H15.2875V18.965ZM16.4625 18.965V23.965H21.4625V18.965H16.4625ZM16.9698 -4.86574C16.2361 -4.85489 15.5116 -4.6996 14.8378 -4.40873L18.8013 4.77227C18.2692 5.00197 17.6971 5.1246 17.1177 5.13317L16.9698 -4.86574ZM14.8378 -4.40873C14.1641 -4.11788 13.5542 -3.69714 13.0431 -3.17053L20.2187 3.79445C19.815 4.21032 19.3334 4.54258 18.8013 4.77227L14.8378 -4.40873ZM13.0431 -3.17053C12.5319 -2.64393 12.1295 -2.0218 11.8589 -1.33969L21.1538 2.34862C20.9401 2.88728 20.6223 3.37858 20.2187 3.79445L13.0431 -3.17053ZM11.8589 -1.33969C11.5882 -0.657574 11.4546 0.0711896 11.4656 0.80498L21.4644 0.654951C21.4731 1.23443 21.3676 1.80995 21.1538 2.34862L11.8589 -1.33969ZM11.465 0.729966V2.49497H21.465V0.729966H11.465ZM16.465 -2.50503H14.7V7.49497H16.465V-2.50503ZM14.95 -2.49878C14.7639 -2.5081 14.5774 -2.5081 14.3913 -2.49878L14.8913 7.48871C14.7443 7.49607 14.597 7.49607 14.45 7.48871L14.95 -2.49878ZM14.3916 -2.4988C13.6586 -2.46215 12.9401 -2.2815 12.2769 -1.96716L16.5604 7.06901C16.0368 7.31718 15.4696 7.4598 14.8909 7.48873L14.3916 -2.4988ZM12.2769 -1.96716C11.6138 -1.65281 11.0191 -1.21093 10.5268 -0.666755L17.9421 6.04238C17.5534 6.47199 17.0839 6.82084 16.5604 7.06901L12.2769 -1.96716ZM10.5268 -0.666755C9.53239 0.43228 9.01535 1.8813 9.08937 3.36153L19.0769 2.86215C19.1353 4.03075 18.7271 5.17472 17.9421 6.04238L10.5268 -0.666755ZM9.08937 3.36153C9.16338 4.84175 9.82236 6.23197 10.9214 7.22634L17.6305 -0.189017C18.4982 0.596016 19.0185 1.69356 19.0769 2.86215L9.08937 3.36153ZM10.9214 7.22634C12.0204 8.2207 13.4694 8.73774 14.9497 8.66373L14.4503 -1.3238C15.6189 -1.38223 16.7629 -0.974036 17.6305 -0.189017L10.9214 7.22634ZM14.7 8.66997H16.465V-1.33003H14.7V8.66997ZM11.465 3.66997V5.43497H21.465V3.66997H11.465ZM11.465 5.43497C11.465 6.16875 11.6095 6.89533 11.8903 7.57321L21.1291 3.74637C21.3509 4.2817 21.465 4.85548 21.465 5.43497L11.465 5.43497ZM11.8903 7.57321C12.1711 8.2511 12.5827 8.86706 13.1015 9.38592L20.1726 2.31486C20.5824 2.72461 20.9074 3.21104 21.1291 3.74637L11.8903 7.57321ZM13.1015 9.38592C13.6204 9.90479 14.2364 10.3164 14.9143 10.5971L18.7411 1.35835C19.2764 1.58009 19.7629 1.90511 20.1726 2.31486L13.1015 9.38592ZM14.9143 10.5971C15.5922 10.8779 16.3187 11.0225 17.0525 11.0225L17.0525 1.02247C17.632 1.02247 18.2057 1.1366 18.7411 1.35835L14.9143 10.5971ZM17.0525 11.0225C17.7863 11.0225 18.5128 10.8779 19.1907 10.5971L15.3639 1.35835C15.8993 1.1366 16.473 1.02247 17.0525 1.02247V11.0225ZM19.1907 10.5971C19.8686 10.3164 20.4846 9.90479 21.0035 9.38592L13.9324 2.31486C14.3421 1.90511 14.8286 1.58009 15.3639 1.35835L19.1907 10.5971ZM21.0035 9.38592C21.5223 8.86706 21.9339 8.2511 22.2147 7.57321L12.9759 3.74637C13.1976 3.21104 13.5226 2.72461 13.9324 2.31486L21.0035 9.38592ZM22.2147 7.57321C22.4955 6.89533 22.64 6.16875 22.64 5.43497L12.64 5.43497C12.64 4.85548 12.7541 4.2817 12.9759 3.74637L22.2147 7.57321ZM22.64 5.43497V3.66997H12.64V5.43497H22.64ZM17.64 8.66997H19.4038V-1.33003H17.64V8.66997ZM19.4038 8.66997C20.8857 8.66997 22.3069 8.08128 23.3547 7.03342L16.2836 -0.0376432C17.1111 -0.865144 18.2335 -1.33003 19.4038 -1.33003L19.4038 8.66997ZM23.3547 7.03342C24.4026 5.98557 24.9913 4.56437 24.9913 3.08247L14.9913 3.08247C14.9913 1.91219 15.4561 0.789855 16.2836 -0.0376432L23.3547 7.03342ZM24.9913 3.08247C24.9913 1.60056 24.4026 0.179362 23.3547 -0.868494L16.2836 6.20257C15.4561 5.37507 14.9913 4.25274 14.9913 3.08247L24.9913 3.08247ZM23.3547 -0.868494C22.3069 -1.91635 20.8856 -2.50503 19.4038 -2.50503L19.4038 7.49497C18.2335 7.49497 17.1111 7.03008 16.2836 6.20257L23.3547 -0.868494ZM19.4038 -2.50503H17.6388V7.49497H19.4038V-2.50503ZM22.6388 2.49497V0.729966H12.6388V2.49497H22.6388ZM22.6382 0.804848C22.6494 0.0580517 22.5107 -0.683386 22.2305 -1.37564L12.9613 2.37704C12.74 1.83036 12.6305 1.24484 12.6393 0.655083L22.6382 0.804848ZM22.2305 -1.37564C21.9502 -2.0679 21.534 -2.69697 21.0064 -3.22564L13.9279 3.838C13.5113 3.4205 13.1826 2.92372 12.9613 2.37704L22.2305 -1.37564ZM21.0064 -3.22564C20.4789 -3.75432 19.8507 -4.17185 19.159 -4.45357L15.3869 4.8077C14.8406 4.58523 14.3446 4.2555 13.9279 3.838L21.0064 -3.22564ZM19.159 -4.45357C18.4673 -4.73529 17.7262 -4.87549 16.9794 -4.86587L17.1081 5.1333C16.5184 5.1409 15.9331 5.03018 15.3869 4.8077L19.159 -4.45357ZM8.21914 -2.49752C5.80623 -2.49168 3.49385 -1.53037 1.78791 0.176084L8.86005 7.24608C8.69647 7.40971 8.47474 7.50189 8.24336 7.50245L8.21914 -2.49752ZM1.78791 0.176084C0.0819769 1.88254 -0.878627 4.19521 -0.883738 6.60812L9.11624 6.62931C9.11575 6.86068 9.02364 7.08245 8.86005 7.24608L1.78791 0.176084ZM-0.883738 6.62931C-0.878624 9.04271 0.0823591 11.3558 1.78889 13.0623L8.85996 5.99126C9.0236 6.1549 9.11575 6.3767 9.11624 6.60812L-0.883738 6.62931ZM1.78889 13.0623C3.49542 14.7689 5.80851 15.7298 8.22191 15.735L8.2431 5.73498C8.47452 5.73547 8.69632 5.82762 8.85996 5.99126L1.78889 13.0623ZM8.2431 15.735C10.6565 15.7298 12.9696 14.7689 14.6761 13.0623L7.60504 5.99126C7.76868 5.82762 7.99048 5.73547 8.22191 5.73498L8.2431 15.735ZM14.6761 13.0623C16.3826 11.3558 17.3436 9.04271 17.3487 6.62931L7.34876 6.60812C7.34925 6.3767 7.4414 6.1549 7.60504 5.99126L14.6761 13.0623ZM17.3487 6.60812C17.3436 4.19472 16.3826 1.88164 14.6761 0.175107L7.60504 7.24618C7.4414 7.08254 7.34925 6.86073 7.34876 6.62931L17.3487 6.60812ZM14.6761 0.175107C12.9684 -1.53257 10.6536 -2.49241 8.24185 -2.49752L8.22066 7.50245C7.99085 7.50197 7.76982 7.41096 7.60504 7.24618L14.6761 0.175107ZM8.25048 8.67868C7.97738 8.67973 7.70677 8.62673 7.45425 8.52273L11.2623 -0.723813C10.2949 -1.12223 9.25824 -1.32527 8.21202 -1.32125L8.25048 8.67868ZM7.45425 8.52273C7.20172 8.41873 6.97227 8.26579 6.77912 8.07272L13.8487 1.00015C13.1087 0.260507 12.2297 -0.325399 11.2623 -0.723813L7.45425 8.52273ZM6.77912 8.07272C6.58597 7.87965 6.43293 7.65026 6.32882 7.39778L15.5737 3.58577C15.1749 2.61853 14.5886 1.73978 13.8487 1.00015L6.77912 8.07272ZM6.32882 7.39778C6.22471 7.14529 6.1716 6.87471 6.17253 6.60161L16.1725 6.63582C16.176 5.5896 15.9726 4.55301 15.5737 3.58577L6.32882 7.39778ZM6.17252 6.63368C6.17171 6.36073 6.22488 6.09031 6.32898 5.83799L15.5731 9.65198C15.9719 8.68535 16.1756 7.6494 16.1725 6.60375L6.17252 6.63368ZM6.32898 5.83799C6.43309 5.58567 6.58607 5.35643 6.77912 5.16346L13.8487 12.236C14.5882 11.4968 15.1743 10.6186 15.5731 9.65198L6.32898 5.83799ZM6.77912 5.16346C6.97217 4.97049 7.20147 4.81761 7.45383 4.71362L11.2639 13.9593C12.2307 13.5609 13.1091 12.9753 13.8487 12.236L6.77912 5.16346ZM7.45383 4.71362C7.7062 4.60962 7.97664 4.55656 8.24959 4.55749L8.21541 14.5574C9.26106 14.561 10.2971 14.3577 11.2639 13.9593L7.45383 4.71362ZM8.21541 4.55749C8.48836 4.55656 8.7588 4.60962 9.01117 4.71362L5.20111 13.9593C6.1679 14.3577 7.20394 14.561 8.24959 14.5574L8.21541 4.55749ZM9.01117 4.71362C9.26353 4.81761 9.49284 4.97049 9.68589 5.16346L2.61632 12.236C3.35587 12.9753 4.23432 13.5609 5.20111 13.9593L9.01117 4.71362ZM9.68589 5.16346C9.87894 5.35643 10.0319 5.58567 10.136 5.83799L0.891912 9.65198C1.29072 10.6186 1.87677 11.4968 2.61632 12.236L9.68589 5.16346ZM10.136 5.83799C10.2401 6.09031 10.2933 6.36073 10.2925 6.63368L0.292523 6.60375C0.289394 7.64941 0.493099 8.68536 0.891912 9.65198L10.136 5.83799ZM10.2925 6.60162C10.2934 6.87464 10.2403 7.14516 10.1363 7.39758L0.890942 3.58655C0.492328 4.55356 0.288954 5.58987 0.29253 6.63581L10.2925 6.60162ZM10.1363 7.39758C10.0322 7.65001 9.87925 7.87935 9.68619 8.07241L2.61513 1.00134C1.87553 1.74094 1.28956 2.61954 0.890942 3.58655L10.1363 7.39758ZM9.68619 8.07241C9.49313 8.26547 9.26379 8.41843 9.01137 8.52248L5.20033 -0.722843C4.23332 -0.32423 3.35472 0.261746 2.61513 1.00134L9.68619 8.07241ZM9.01137 8.52248C8.76092 8.62572 8.48931 8.67963 8.21416 8.67869L8.24834 -1.32125C7.20028 -1.32484 6.16537 -1.12064 5.20033 -0.722843L9.01137 8.52248ZM8.23125 6.90872C1.76847 6.90872 -5 11.5112 -5 18.965H5C5 18.6474 5.1321 18.2165 5.66417 17.7648C6.2152 17.297 7.11235 16.9087 8.23125 16.9087V6.90872ZM0 23.965H1.17625V13.965H0V23.965ZM6.17625 18.965C6.17625 18.9649 6.17625 18.9652 6.17622 18.9657C6.17618 18.9663 6.17613 18.9669 6.17605 18.9676C6.17586 18.9691 6.17569 18.9697 6.17589 18.9689C6.17611 18.9679 6.1791 18.9556 6.19113 18.9316C6.21559 18.8828 6.28318 18.7758 6.43796 18.6454C6.7532 18.3798 7.35863 18.0862 8.2325 18.0862V8.08622C2.33877 8.08622 -3.82375 12.2255 -3.82375 18.965H6.17625ZM8.2325 18.0862C9.10539 18.0862 9.71048 18.3795 10.0257 18.6452C10.1805 18.7756 10.2481 18.8826 10.2726 18.9315C10.2846 18.9556 10.2876 18.9679 10.2879 18.9688C10.2881 18.9697 10.2879 18.9691 10.2877 18.9676C10.2876 18.9669 10.2876 18.9663 10.2875 18.9657C10.2875 18.9652 10.2875 18.9649 10.2875 18.965H20.2875C20.2875 12.226 14.1256 8.08622 8.2325 8.08622V18.0862ZM15.2875 23.965H16.4625V13.965H15.2875V23.965ZM21.4625 18.965C21.4625 11.5117 14.6958 6.90872 8.23125 6.90872V16.9087C9.35101 16.9087 10.248 17.2971 10.7986 17.7646C11.3302 18.216 11.4625 18.6468 11.4625 18.965H21.4625Z" fill="#1C6D53" mask="url(#path-1-inside-1_412_180)"/>
</svg>
