<svg width="20" height="20" viewBox="0 0 20 20" fill="none" xmlns="http://www.w3.org/2000/svg">
<g clip-path="url(#clip0_415_253)">
<path opacity="0.3" d="M12.5 13.3334C10.2583 13.3334 7.69167 14.4 7.5 15H17.5C17.3333 14.4084 14.75 13.3334 12.5 13.3334Z" fill="white"/>
<path opacity="0.3" d="M12.5002 8.33333C13.4206 8.33333 14.1668 7.58714 14.1668 6.66667C14.1668 5.74619 13.4206 5 12.5002 5C11.5797 5 10.8335 5.74619 10.8335 6.66667C10.8335 7.58714 11.5797 8.33333 12.5002 8.33333Z" fill="white"/>
<path d="M12.5002 10C14.3418 10 15.8335 8.50837 15.8335 6.66671C15.8335 4.82504 14.3418 3.33337 12.5002 3.33337C10.6585 3.33337 9.16683 4.82504 9.16683 6.66671C9.16683 8.50837 10.6585 10 12.5002 10ZM12.5002 5.00004C13.4168 5.00004 14.1668 5.75004 14.1668 6.66671C14.1668 7.58337 13.4168 8.33337 12.5002 8.33337C11.5835 8.33337 10.8335 7.58337 10.8335 6.66671C10.8335 5.75004 11.5835 5.00004 12.5002 5.00004ZM12.5002 11.6667C10.2752 11.6667 5.8335 12.7834 5.8335 15V16.6667H19.1668V15C19.1668 12.7834 14.7252 11.6667 12.5002 11.6667ZM7.50016 15C7.6835 14.4 10.2585 13.3334 12.5002 13.3334C14.7502 13.3334 17.3335 14.4084 17.5002 15H7.50016ZM5.00016 12.5V10H7.50016V8.33337H5.00016V5.83337H3.3335V8.33337H0.833496V10H3.3335V12.5H5.00016Z" fill="#1C6D53"/>
</g>
<defs>
<clipPath id="clip0_415_253">
<rect width="20" height="20" fill="white"/>
</clipPath>
</defs>
</svg>
