<svg width="45" height="45" viewBox="0 0 45 45" fill="none" xmlns="http://www.w3.org/2000/svg">
<path d="M36.5625 29.5312H32.3438V25.3125C32.3438 24.9395 32.1956 24.5819 31.9319 24.3181C31.6681 24.0544 31.3105 23.9062 30.9375 23.9062C30.5645 23.9062 30.2069 24.0544 29.9431 24.3181C29.6794 24.5819 29.5312 24.9395 29.5312 25.3125V30.9375C29.5312 31.3105 29.6794 31.6681 29.9431 31.9319C30.2069 32.1956 30.5645 32.3438 30.9375 32.3438H36.5625C36.9355 32.3438 37.2931 32.1956 37.5569 31.9319C37.8206 31.6681 37.9688 31.3105 37.9688 30.9375C37.9688 30.5645 37.8206 30.2069 37.5569 29.9431C37.2931 29.6794 36.9355 29.5312 36.5625 29.5312Z" fill="black"/>
<path d="M30.9375 19.6875C29.9891 19.6892 29.0446 19.8072 28.125 20.0391V4.21875C28.125 3.84579 27.9768 3.4881 27.7131 3.22438C27.4494 2.96066 27.0917 2.8125 26.7188 2.8125H4.21875C3.84579 2.8125 3.4881 2.96066 3.22438 3.22438C2.96066 3.4881 2.8125 3.84579 2.8125 4.21875V35.1562C2.8125 35.5292 2.96066 35.8869 3.22438 36.1506C3.4881 36.4143 3.84579 36.5625 4.21875 36.5625H21.2062C22.1939 38.2731 23.6145 39.6936 25.3253 40.681C27.0361 41.6684 28.9766 42.188 30.9519 42.1875C32.9272 42.187 34.8675 41.6664 36.5778 40.6781C38.288 39.6898 39.7079 38.2686 40.6947 36.5575C41.6815 34.8464 42.2003 32.9056 42.199 30.9303C42.1978 28.955 41.6764 27.0149 40.6875 25.305C39.6985 23.5951 38.2768 22.1758 36.5653 21.1897C34.8538 20.2036 32.9128 19.6855 30.9375 19.6875ZM18.2812 29.5312H8.4375C8.06454 29.5312 7.70685 29.3831 7.44313 29.1194C7.17941 28.8556 7.03125 28.498 7.03125 28.125C7.03125 27.752 7.17941 27.3944 7.44313 27.1306C7.70685 26.8669 8.06454 26.7188 8.4375 26.7188H18.2812C18.6542 26.7188 19.0119 26.8669 19.2756 27.1306C19.5393 27.3944 19.6875 27.752 19.6875 28.125C19.6875 28.498 19.5393 28.8556 19.2756 29.1194C19.0119 29.3831 18.6542 29.5312 18.2812 29.5312ZM19.6875 25.3125H8.4375C8.06454 25.3125 7.70685 25.1643 7.44313 24.9006C7.17941 24.6369 7.03125 24.2792 7.03125 23.9062C7.03125 23.5333 7.17941 23.1756 7.44313 22.9119C7.70685 22.6482 8.06454 22.5 8.4375 22.5H19.6875C20.0605 22.5 20.4181 22.6482 20.6819 22.9119C20.9456 23.1756 21.0938 23.5333 21.0938 23.9062C21.0938 24.2792 20.9456 24.6369 20.6819 24.9006C20.4181 25.1643 20.0605 25.3125 19.6875 25.3125ZM19.6875 21.0938H8.4375C8.06454 21.0938 7.70685 20.9456 7.44313 20.6819C7.17941 20.4181 7.03125 20.0605 7.03125 19.6875C7.03125 19.3145 7.17941 18.9569 7.44313 18.6931C7.70685 18.4294 8.06454 18.2812 8.4375 18.2812H19.6875C20.0605 18.2812 20.4181 18.4294 20.6819 18.6931C20.9456 18.9569 21.0938 19.3145 21.0938 19.6875C21.0938 20.0605 20.9456 20.4181 20.6819 20.6819C20.4181 20.9456 20.0605 21.0938 19.6875 21.0938ZM19.6875 16.875H8.4375C8.06454 16.875 7.70685 16.7268 7.44313 16.4631C7.17941 16.1994 7.03125 15.8417 7.03125 15.4688C7.03125 15.0958 7.17941 14.7381 7.44313 14.4744C7.70685 14.2107 8.06454 14.0625 8.4375 14.0625H19.6875C20.0605 14.0625 20.4181 14.2107 20.6819 14.4744C20.9456 14.7381 21.0938 15.0958 21.0938 15.4688C21.0938 15.8417 20.9456 16.1994 20.6819 16.4631C20.4181 16.7268 20.0605 16.875 19.6875 16.875ZM21.0938 12.6562H8.4375C8.06454 12.6562 7.70685 12.5081 7.44313 12.2444C7.17941 11.9806 7.03125 11.623 7.03125 11.25C7.03125 10.877 7.17941 10.5194 7.44313 10.2556C7.70685 9.99191 8.06454 9.84375 8.4375 9.84375H21.0938C21.4667 9.84375 21.8244 9.99191 22.0881 10.2556C22.3518 10.5194 22.5 10.877 22.5 11.25C22.5 11.623 22.3518 11.9806 22.0881 12.2444C21.8244 12.5081 21.4667 12.6562 21.0938 12.6562ZM30.9375 39.375C28.9519 39.3686 27.0322 38.6622 25.5161 37.3801C24 36.0979 22.9846 34.3221 22.6486 32.3652C22.3127 30.4082 22.6777 28.3954 23.6793 26.681C24.681 24.9666 26.2552 23.6604 28.125 22.9922C29.0263 22.664 29.9784 22.4974 30.9375 22.5C33.1753 22.5 35.3214 23.3889 36.9037 24.9713C38.4861 26.5536 39.375 28.6997 39.375 30.9375C39.375 33.1753 38.4861 35.3214 36.9037 36.9037C35.3214 38.4861 33.1753 39.375 30.9375 39.375Z" fill="black"/>
</svg>
