<svg width="20" height="20" viewBox="0 0 20 20" fill="none" xmlns="http://www.w3.org/2000/svg">
<g clip-path="url(#clip0_802_1828)">
<path d="M5.52186 2.87813L5.53749 2.9125C5.57499 2.9875 5.68749 3.04375 5.80311 3.04375H12.4781C12.5969 3.04375 12.7062 2.9875 12.7469 2.90625L12.7625 2.87187V2.20938L12.7594 2.20313V1.58125L12.7437 1.54687C12.7 1.45937 12.575 1.41875 12.4781 1.41875H10.8719C10.6844 1.41875 10.5125 1.35 10.3937 1.22813C10.3031 1.13438 10.2531 1.01875 10.2562 0.9C10.2594 0.815625 10.2469 0.734375 10.2187 0.653125C10.1156 0.3375 9.77186 0.08125 9.35936 0.015625C9.28749 0.00625 9.21561 0 9.14374 0C8.82499 0 8.53124 0.103125 8.31561 0.2875C8.12811 0.45 8.02186 0.659375 8.02186 0.878125C8.02186 1.01562 7.96874 1.14063 7.86874 1.24063C7.75624 1.35625 7.59686 1.41875 7.41874 1.41875H5.79999C5.67186 1.41875 5.56249 1.47812 5.52499 1.56875L5.51561 1.59688V2.25L5.51874 2.25625V2.87813H5.52186ZM5.79374 7.72187H7.29999C7.47499 7.72187 7.61874 7.58125 7.61874 7.40313V5.9C7.61874 5.725 7.47499 5.58125 7.29999 5.58125H5.79374C5.61874 5.58125 5.47499 5.725 5.47499 5.9V7.40313C5.47186 7.58125 5.61561 7.72187 5.79374 7.72187ZM6.11249 6.21875H6.97811V7.08125H6.11249V6.21875V6.21875ZM5.47186 10.4C5.47186 10.575 5.61561 10.7187 5.79061 10.7187H7.29686C7.47186 10.7187 7.61561 10.575 7.61561 10.4V8.89687C7.61561 8.72187 7.47186 8.57813 7.29686 8.57813H5.79061C5.61561 8.57813 5.47186 8.72187 5.47186 8.89687V10.4ZM6.11249 9.21562H6.97811V10.0781H6.11249V9.21562ZM7.61874 13.4V11.8969C7.61874 11.7219 7.47499 11.5781 7.29999 11.5781H5.79374C5.61874 11.5781 5.47499 11.7219 5.47499 11.8969V13.4C5.47499 13.575 5.61874 13.7188 5.79374 13.7188H7.29999C7.47499 13.7188 7.61874 13.575 7.61874 13.4ZM6.97811 13.0781H6.11249V12.2156H6.97811V13.0781ZM12.4844 6.33125H8.46249C8.28436 6.33125 8.14374 6.475 8.14374 6.65C8.14374 6.82813 8.28749 6.96875 8.46249 6.96875H12.4875C12.6656 6.96875 12.8062 6.825 12.8062 6.65C12.8062 6.475 12.6625 6.33125 12.4844 6.33125ZM12.4844 9.32813H8.46249C8.28436 9.32813 8.14374 9.47188 8.14374 9.64688C8.14374 9.825 8.28749 9.96562 8.46249 9.96562H12.4875C12.6656 9.96562 12.8062 9.82188 12.8062 9.64688C12.8062 9.47188 12.6625 9.32813 12.4844 9.32813ZM12.8062 12.6469C12.8062 12.4688 12.6625 12.3281 12.4875 12.3281H8.46249C8.28436 12.3281 8.14374 12.4719 8.14374 12.6469C8.14374 12.825 8.28749 12.9656 8.46249 12.9656H12.4875C12.6625 12.9656 12.8062 12.8219 12.8062 12.6469ZM15.8844 13.6188C15.8781 13.6188 15.8719 13.6156 15.8625 13.6125C15.5125 13.4875 15.1375 13.4187 14.7437 13.4187C14.6406 13.4187 14.5406 13.4219 14.4437 13.4312C12.7687 13.5844 11.4562 14.9969 11.4562 16.7062C11.4562 17.0219 11.5 17.3312 11.5844 17.6219C11.5906 17.6437 11.5969 17.6625 11.6031 17.6813C11.7406 18.1219 11.9687 18.525 12.2656 18.8656C12.5719 19.2221 12.9516 19.5081 13.3789 19.7039C13.8061 19.8997 14.2706 20.0007 14.7406 20C16.5562 20 18.0344 18.5219 18.0344 16.7062C18.0344 15.2969 17.1375 14.0875 15.8844 13.6188V13.6188ZM16.6812 15.7625L14.3469 18.1031C14.2844 18.1656 14.2 18.1969 14.1187 18.1969C14.0785 18.1979 14.0385 18.1909 14.001 18.1764C13.9634 18.162 13.9291 18.1402 13.9 18.1125L12.8125 17.1187C12.6812 16.9969 12.675 16.7969 12.7937 16.6656C12.9125 16.5375 13.1156 16.5281 13.2437 16.6469L14.1062 17.4375L16.2281 15.3094C16.3531 15.1844 16.5531 15.1844 16.6781 15.3094C16.8062 15.4344 16.8062 15.6375 16.6812 15.7625V15.7625Z" fill="#1C6D53"/>
<path d="M11.0563 18.0686H3.83751C3.65939 18.0686 3.51876 17.9248 3.51876 17.7498V4.5498C3.51876 4.3748 3.65939 4.23105 3.83751 4.23105H14.4406C14.6156 4.23105 14.7594 4.3748 14.7594 4.5498V12.7779C15.0719 12.7779 15.3813 12.8186 15.6719 12.8904C15.8938 12.9436 16.1063 13.0154 16.3125 13.1092V3.41543C16.3125 3.01649 16.1542 2.63384 15.8724 2.35145C15.5906 2.06907 15.2083 1.91001 14.8094 1.90918H13.2375V2.84043C13.2375 3.21543 12.8938 3.52168 12.475 3.52168H5.80314C5.38439 3.52168 5.04064 3.21543 5.04064 2.84043V1.90918H3.46876C3.06982 1.91001 2.6875 2.06907 2.4057 2.35145C2.1239 2.63384 1.96564 3.01649 1.96564 3.41543V17.9123C1.96564 18.7404 2.64064 19.4123 3.46876 19.4123H11.8938C11.527 19.0253 11.2422 18.5683 11.0563 18.0686V18.0686Z" fill="#1C6D53"/>
<path d="M5.95938 15.8691C5.78125 15.8691 5.64062 16.0129 5.64062 16.1879C5.64062 16.366 5.78438 16.5066 5.95938 16.5066H6.4C6.57813 16.5066 6.71875 16.3629 6.71875 16.1879C6.71875 16.0098 6.575 15.8691 6.4 15.8691H5.95938ZM7.50625 16.5098H7.94688C8.125 16.5098 8.26563 16.366 8.26563 16.191C8.26563 16.0129 8.12188 15.8723 7.94688 15.8723H7.50625C7.32813 15.8723 7.1875 16.016 7.1875 16.191C7.18438 16.366 7.32813 16.5098 7.50625 16.5098ZM9.05313 15.8691C8.875 15.8691 8.73438 16.0129 8.73438 16.1879C8.73438 16.366 8.87813 16.5066 9.05313 16.5066H9.49375C9.67187 16.5066 9.8125 16.3629 9.8125 16.1879C9.8125 16.0098 9.66875 15.8691 9.49375 15.8691H9.05313Z" fill="#1C6D53"/>
</g>
<defs>
<clipPath id="clip0_802_1828">
<rect width="20" height="20" fill="white"/>
</clipPath>
</defs>
</svg>
